<?xml version="1.0" encoding="UTF-8"?><svg xmlns="http://www.w3.org/2000/svg" width="38.75" height="35.82" xmlns:xlink="http://www.w3.org/1999/xlink" viewBox="0 0 38.75 35.82"><defs><style>.n,.o,.p,.q,.r,.s,.t,.u,.v,.w,.x,.y,.z,.aa,.ab,.ac,.ad,.ae,.af{stroke-width:0px;}.n,.v,.x,.z,.ab{fill-rule:evenodd;}.n,.aa,.ae{fill:#fff;}.o{fill:#ffe1ba;}.p{fill:#f2b5b9;}.ag{isolation:isolate;}.q,.z{fill:#ef4643;}.r,.s{fill:none;}.ah{clip-path:url(#b);}.s{clip-rule:evenodd;}.t{fill:#d3aa8d;}.u,.ab{fill:#0b1a29;}.v{fill:#1b2b3b;}.w{fill:#774b1e;opacity:.44;}.w,.ac{mix-blend-mode:multiply;}.x{fill:#fbad18;}.y{fill:#db7e23;}.aa{mix-blend-mode:soft-light;opacity:.71;}.ac,.ad{fill:#faa227;}.af{fill:#7f2929;}</style><clipPath id="b"><path class="s" d="M19.04,1.72c8.84,0,16,7.01,16,15.65s-7.16,15.65-16,15.65S3.04,26.01,3.04,17.37,10.2,1.72,19.04,1.72Z"/></clipPath></defs><g class="ag"><g id="a"><g class="ah"><path class="x" d="M1.17,19.58h37.57v16.25H1.17v-16.25Z"/><path class="z" d="M0,10.58h37.3v11.68H0v-11.68Z"/><path class="v" d="M.89,0h34.9v12.76H.89V0Z"/><path class="ac" d="M21.03,32.09c-8.7,0-15.76-6.9-15.76-15.42,0-6.1,3.62-11.37,8.87-13.87C7.99,4.91,3.58,10.64,3.58,17.37c0,8.51,7.06,15.42,15.76,15.42,2.47,0,4.81-.56,6.89-1.55-1.63.56-3.38.86-5.2.86Z"/><path class="aa" d="M12.89,3.86c8.33-2.48,17.13,2.12,19.66,10.27,1.81,5.83-.08,11.9-4.36,15.79,5.26-3.76,7.78-10.49,5.77-16.93C31.43,4.84,22.63.25,14.3,2.72c-2.36.7-4.44,1.9-6.13,3.44,1.39-1,2.98-1.78,4.72-2.3Z"/><path class="u" d="M19.04,33.48c-4.4,0-8.54-1.68-11.65-4.72-3.11-3.04-4.83-7.09-4.83-11.39s1.71-8.35,4.83-11.39c3.11-3.04,7.25-4.72,11.65-4.72s8.54,1.68,11.65,4.72c3.11,3.04,4.83,7.09,4.83,11.39s-1.71,8.35-4.83,11.39c-3.11,3.04-7.25,4.72-11.65,4.72ZM19.04,2.34c-8.47,0-15.36,6.74-15.36,15.02s6.89,15.02,15.36,15.02,15.36-6.74,15.36-15.02S27.51,2.34,19.04,2.34Z"/></g><path class="ad" d="M13.47,29.94c.02-.05.06-.1.11-.14l7.26-5.85c-.54-.02-1.23-.05-1.94-.09-3.05-.18-3.5-.43-3.67-.55-.71-.4-2.34-1.48-2.4-1.52,0,0,0,0,0,0-.09-.06-2.15-1.56-2.67-5.05-.03-.19.09-.37.28-.42.5-.14.83-.24,1.03-.3l.21-1.85c-.73,0-2.31.15-3.36,1.12-.75.69-1.1,1.69-1.06,2.98.02.76.29,1.37.78,1.81.24.22.52.37.78.49-.17-.27-.26-.56-.22-.82.05-.3.26-.53.59-.63.24-.08.5-.04.72.11.54.36.86,1.38.92,2.17.06.78-.14,1.43-.4,2.25-.22.7-.5,1.58-.7,2.83-.4,2.5,2.38,4.04,2.41,4.05.15.08.22.24.2.39l.68.1s.01-.07.03-.1l.45-.98Z"/><path class="y" d="M12.25,30.29s-2.64-1.48-2.27-3.77c.2-1.23.47-2.09.69-2.79.27-.85.48-1.52.41-2.35-.07-.89-.42-1.97-1.04-2.38-.19-.13-.41-.19-.63-.19-.11,0-.22.02-.33.05-.43.13-.72.45-.78.85-.01.08-.02.16-.01.25-.03-.02-.06-.05-.09-.07-.43-.39-.66-.94-.69-1.62-.04-1.21.29-2.14.97-2.78.86-.79,2.12-.99,2.86-1.03l-.15,1.36c-.2.06-.48.14-.85.25-.32.09-.4.25-.35.57.53,3.61,2.64,5.2,2.73,5.27l-.06.13c.07.05,1.69,1.12,2.41,1.53"/><path class="ad" d="M12.99,30.85c-.05-.16-.16-.31-.32-.39-.03-.01-2.64-1.48-2.27-3.77.2-1.23.47-2.09.69-2.79.27-.85.48-1.52.41-2.35-.07-.89-.42-1.97-1.04-2.38-.19-.13-.41-.19-.63-.19-.11,0-.22.02-.33.05-.43.13-.72.45-.78.85-.01.08.02.38.03.46-.03-.02-.24-.13-.27-.16-.43-.39-.52-1.07-.54-1.75-.04-1.21.29-2.14.97-2.78.86-.79,2.12-.99,2.86-1.03l-.15,1.36c-.2.06-.48.14-.85.25-.32.09-.52.4-.48.72.53,3.61,2.69,5.17,2.78,5.23h.02c.07.06,1.69,1.13,2.41,1.54.2.14.64.4,3.81.59.38.02.79.04,1.21.06l-6.7,5.39c-.08.06-.14.15-.19.24l-.4.89-.24-.04Z"/><path class="u" d="M12.83,21.8,12.13,13.42c-.11,0-2.71-.22-4.36,1.31-.92.85-1.36,2.05-1.31,3.57.03,1.06.46,1.94,1.24,2.52.9.68,2.07.81,2.34.77.02.58-.15,1.12-.38,1.84-.23.73-.51,1.63-.72,2.93-.2,1.26.22,2.5,1.23,3.59.74.8,1.54,1.24,1.57,1.25.19.1.43.04.53-.15.02-.04.04-.08.04-.13.02-.15-.05-.31-.2-.39-.03-.02-2.81-1.56-2.41-4.05.2-1.25.48-2.12.7-2.83.26-.82.46-1.47.4-2.25-.06-.79-.38-1.81-.92-2.17-.22-.15-.48-.19-.72-.11-.33.1-.54.33-.59.63-.04.26.05.55.22.82-.26-.11-.54-.27-.78-.49-.49-.44-.75-1.05-.78-1.81-.04-1.29.31-2.29,1.06-2.98,1.05-.97,2.63-1.11,3.36-1.12"/><path class="ad" d="M16.12,28.76c-1.16-.46-2.23-.7-2.77-.4-.61.34-.91.92-1,1.35-.06.29-.02.48.04.57.41.36,1.6.75,2.9,1.05-.16-.27-.07-1.5.83-2.57Z"/><path class="y" d="M15.01,31.04c-1.19-.29-2.1-.62-2.44-.89-.02-.05-.05-.19,0-.39.08-.38.35-.9.89-1.2.12-.07.3-.1.52-.1.44,0,1.05.14,1.79.42-.58.8-.77,1.66-.75,2.18Z"/><path class="ad" d="M15.86,31.26c-1.43-.34-2.52-.73-2.93-1.05-.03-.06-.05-.22,0-.46.09-.45.42-1.06,1.07-1.41.15-.08.36-.12.62-.12.52,0,1.26.17,2.14.49-.7.94-.93,1.94-.9,2.56Z"/><path class="ad" d="M23.81,28.74l-1.43.66c.29.58.45,1.27.31,2,1.46-.29,1.81-.61,1.89-.71.15-.21.21-.42.17-.66-.09-.51-.61-1.03-.94-1.29Z"/><path class="o" d="M22.96,31.12c.04-.53-.05-1.07-.28-1.62l1.1-.51c.34.3.7.71.76,1.07.03.18-.01.33-.13.49,0,.01-.23.29-1.45.56Z"/><path class="ad" d="M22.76,31.19c.04-.53-.05-1.07-.28-1.62l1.1-.51c.34.3.7.71.76,1.07.03.18-.01.33-.13.49,0,.01-.23.29-1.45.56Z"/><path class="ae" d="M22.39,29.4l-2.68,1.24-.18-.12c-.91-.59-2.21-1.29-3.4-1.77-.9,1.06-.98,2.29-.83,2.57,1.15.26,2.37.45,3.22.46.81.01,2.21-.06,3.51-.27.25-.04.47-.08.67-.12.14-.73-.02-1.42-.31-2Z"/><path class="w" d="M14.67,28.53l-.48-.49h-.96l-.69.49,5.25,2.26s.55.84,1.8.79,1.51-.7,1.51-.7l4-1.32-.59-.8-5.28,1.25-4.55-1.48Z"/><path class="u" d="M25.53,29.91c-.18-1.06-1.39-1.89-1.45-1.92l-.19-.12-1.91.88-2.22,1.03c-.4-.25-1.38-.83-2.51-1.36-.18-.08-.36-.16-.53-.23-1.77-.75-3-.91-3.76-.49-.83.47-1.26,1.27-1.38,1.86-.1.49-.03.92.21,1.21l.02.02.02.02c1,.94,5.03,1.71,6.68,1.74.06,0,.13,0,.2,0,.86,0,2.2-.08,3.45-.28,2.51-.39,2.93-.95,3.07-1.13.28-.38.39-.79.31-1.24ZM24.59,30.69c-.08.1-.42.42-1.89.71-.2.04-.42.08-.67.12-1.31.2-2.71.28-3.51.27-.84-.01-2.07-.2-3.22-.46-1.3-.3-2.5-.69-2.9-1.05-.06-.09-.1-.29-.04-.57.09-.43.4-1.01,1-1.35.54-.3,1.61-.06,2.77.4,1.19.47,2.48,1.18,3.4,1.77l.18.12,2.68-1.24,1.43-.66c.33.27.86.78.94,1.29.04.23-.02.45-.17.66Z"/><path class="q" d="M16.69,25.37c-.73-.34-1.45-.67-1.93-.9l-.09,3.7,3.41,1.38.19-3.47c-.39-.17-.9-.4-1.58-.72Z"/><path class="p" d="M14.9,28.03l.08-3.21c.49.21,1.11.48,1.74.75.63.27,1.14.48,1.56.66l-.17,3.01-3.2-1.21Z"/><path class="q" d="M15.19,28.47l.08-3.21c.45.21,1.03.48,1.62.75.58.27,1.06.48,1.45.66l-.16,3.01-2.98-1.21Z"/><path class="q" d="M24.51,28.4l-.07-3.64c-.48.19-1.24.49-2,.78-.79.3-1.35.52-1.76.66l.39,3.43,3.43-1.24Z"/><path class="p" d="M20.68,26.32c.45-.15,1.01-.34,1.71-.59.66-.23,1.31-.46,1.82-.64l.06,3.07-3.23,1.06-.36-2.9Z"/><path class="q" d="M20.71,26.72c.42-.15.94-.35,1.6-.61.61-.24,1.23-.48,1.7-.66l.06,3.17-3.02,1.09-.34-2.99Z"/><path class="q" d="M19.55,26.56c-.06,0-.13,0-.51-.15l-.2,3.63c.14.16.41.39.77.38.33,0,.58-.2.73-.33l-.41-3.62c-.27.09-.33.09-.38.09Z"/><path class="p" d="M19.58,30.16c-.34,0-.63-.13-.8-.25l.26-3.35c.31.13.65.18.81.11l.39,3.33c-.19.1-.31.16-.63.16h-.03Z"/><path class="q" d="M19.7,26.93c-.23.08-.6,0-.94-.2l-.71,3.18c.21.13.54.31.96.35h.03c.4.04.73-.02.98-.09l-.33-3.25Z"/><path class="af" d="M14.33,27.34l4.14,1.72.3.13s.23.32.82.3,1.12-.36,1.12-.36l4.02-1.26.19.86-4.08,1.33-.81.71h-.91l-.89-.74-3.93-1.58.04-1.12Z"/><path class="u" d="M25.21,24.2c0-.13-.07-.24-.18-.31-.11-.07-.24-.08-.36-.04-1.46.58-3.05,1.2-4.08,1.58l.09.78c.41-.15.97-.36,1.76-.66.76-.29,1.52-.59,2-.78l.07,3.64-3.43,1.24.05.47-.78.08v-.1c-.15.14-.4.33-.74.33-.36.01-.63-.22-.77-.38v.02s-.78-.04-.78-.04l.02-.46-3.41-1.38.09-3.7c.47.22,1.2.56,1.93.9.68.31,1.2.55,1.58.72l.04-.69.87.24c-.87-.36-2.85-1.27-4.62-2.11-.12-.06-.26-.05-.37.02-.11.07-.18.19-.19.32l-.11,4.55c0,.16.09.3.24.36l4.01,1.62c.18.24.68.78,1.45.78.01,0,.03,0,.04,0,.74-.02,1.22-.49,1.4-.72l4-1.45c.16-.06.26-.2.25-.36l-.08-4.46Z"/><path class="u" d="M19.93,26.48l-.02-.15-.42.2-.46-.13h0c.38.16.45.16.51.16.05,0,.11,0,.38-.09Z"/><polygon class="u" points="18.27 26.09 18.09 29.56 18.06 30.02 18.84 30.06 18.84 30.05 19.04 26.41 19.04 26.4 19.5 26.53 19.91 26.32 19.93 26.48 20.34 30.09 20.35 30.2 21.13 30.11 21.07 29.65 20.68 26.21 20.59 25.43 20.56 25.15 19.42 25.71 19.18 25.64 18.31 25.4 18.27 26.09"/><path class="ae" d="M20.2,25.3c1.12-.45,3-1.21,3.8-1.53-.14-.22-.33-.37-.64-.37-.13,0-.28.03-.46.08,0,0-.02,0-.02,0-1.4.34-2.23,1.18-2.68,1.81Z"/><path class="u" d="M24.78,23.8c-.18-.38-.66-1.38-2.07-.94-2.69.66-3.53,2.89-3.57,2.99-.04.12-.01.26.08.35.06.06.15.09.23.09.04,0,.09,0,.13-.02.05-.02,4.63-1.87,5.01-2.01.09-.03.16-.1.19-.18.03-.08.03-.18,0-.26ZM22.9,23.49c.18-.06.33-.08.46-.08.31,0,.49.15.64.37-.8.32-2.68,1.08-3.8,1.53.45-.63,1.28-1.47,2.68-1.81,0,0,.02,0,.02,0Z"/><path class="ae" d="M15.5,23.28h-.02c-.06-.01-.13.03-.17.06-.11.08-.19.19-.25.29.72.29,2.52,1.08,3.82,1.66-.41-.73-1.35-1.75-3.38-2.01Z"/><path class="u" d="M19.18,24.36c-.56-.7-1.64-1.59-3.56-1.83-.72-.12-1.28.64-1.38,1.09-.08.36.11.58.33.63.27.09,3.11,1.34,4.85,2.11l.19-.41.36-.07s-.16-.75-.77-1.53ZM15.06,23.63c.06-.1.14-.21.25-.29.04-.03.11-.07.17-.06h.02c2.03.26,2.96,1.28,3.38,2.01-1.3-.58-3.1-1.36-3.82-1.66Z"/><path class="u" d="M26.08,25.91c-.14-1.97-1.64-3.01-1.65-3.02l.44-.63c.07.05,1.82,1.26,1.99,3.6l-.78.05Z"/><path class="ad" d="M25.4,25.44s0,.06,0,.08c-.02.16-.13.29-.29.33-.02,0-.04.01-.05.01-.26.03-.87.17-1.07.43-.21.27-.25.53-.11.77.21.38.73.61.99.59.27-.02.64-.1.89-.4.21-.24.32-.6.33-1.06,0-.15,0-.32-.03-.51-.17-1.77-1.45-2.63-1.45-2.66l-.28.1c.13.14.33.36.46.7.22.02.31.05.4.26.05.33.03.86.04,1.09,0,0,0,0,0,0,.09.06.15.16.17.27Z"/><path class="o" d="M25.83,25.71c-.04-.37-.14-.84-.39-1.33,0,.03,0,.06,0,.09.12.35.18.67.21.96.02.22.03.4.03.58,0,.48-.12.84-.33,1.08-.17.2-.41.29-.62.34.04,0,.08.02.11.02,0,0,0,0,.01,0,.22-.02.53-.08.74-.32.17-.2.27-.52.27-.92,0-.15,0-.31-.03-.49Z"/><path class="u" d="M26.83,25.6c-.02-.21-.22-.36-.43-.34-.18.02-.32.16-.34.34,0,.03,0,.06,0,.08.02.18.03.35.03.51,0,.46-.12.82-.33,1.06-.25.3-.63.38-.89.4-.25.02-.78-.21-.99-.59-.14-.25-.1-.5.11-.77.19-.25.81-.4,1.07-.43.02,0,.04,0,.05-.01.16-.04.27-.17.29-.33,0-.03,0-.06,0-.08-.01-.11-.08-.21-.17-.27-.07-.05-.17-.08-.26-.06-.12.01-1.16.14-1.61.73-.4.51-.46,1.08-.17,1.6.35.63,1.11.99,1.65.99.03,0,.05,0,.08,0,.42-.03,1.01-.17,1.44-.67.42-.49.58-1.22.48-2.14Z"/><path class="r" d="M13.64,24.9s-.02.01-.03.02c.01,0,.02-.01.03-.02Z"/><path class="ad" d="M14.14,22.8s-.09.06-.23.16c-.45.33-1.42,1.17-1.74,2.35-.01.04-.02.08-.03.12-.14.62-.03,1.16.32,1.54.43.47,1.19.69,2.03.59.33-.04.74-.15.81-.46.06-.3-.18-.66-.33-.75-.14-.08-.27-.1-.4-.13-.39-.08-.72-.19-1.09-.77-.11-.18-.06-.41.12-.53.01,0,.02-.01.03-.02.06-.03.13-.04.19-.04.05,0,.1.01.14.03.01-.06,0-.31,0-.39,0,0,.01-.57.02-.71,0,0,.07-.22.25-.28.04-.16.23-.46.36-.58-.24-.1-.28-.27-.35-.27-.03.05-.08.1-.13.13Z"/><path class="y" d="M14.11,27.36c-.62,0-1.16-.2-1.48-.54-.3-.33-.4-.8-.27-1.35,0-.04.02-.07.03-.11.31-1.13,1.26-1.94,1.66-2.23.13-.1.21-.15.21-.15,0,0,.01,0,.02-.01,0,0,0,0,.01.01-.08.12-.16.26-.21.37-.2.12-.28.34-.29.37v.02s-.01.03-.01.03c0,.09-.01.31-.02.55,0,.07,0,.13,0,.15h0s0,.1,0,.17c-.07,0-.15.03-.21.06-.02,0-.04.02-.06.03-.29.18-.37.55-.19.83.42.65.81.78,1.23.87.13.03.23.05.34.11.07.04.26.31.22.51-.03.14-.26.25-.61.29-.12.01-.25.02-.36.02h0Z"/><path class="ad" d="M13.84,24.05c-.02.6-.27.93-.08,1.22.45.68.86.81,1.31.9.14.03.24.05.37.11.08.04.28.32.24.53-.03.14-.27.26-.65.3-.13.01-.26.02-.39.02h0c-.66,0-1.23-.2-1.57-.56-.32-.34-.42-.82-.29-1.4,0-.04.02-.07.03-.11.33-1.17,1.2-1.9,1.62-2.21"/><path class="u" d="M15.35,25.68c-.25-.13-.45-.18-.62-.21-.24-.05-.35-.07-.55-.37-.01-.02-.03-.04-.04-.06-.04-.07-.1-.11-.17-.14-.05-.02-.09-.03-.14-.03-.06,0-.13.01-.19.04-.01,0-.02.01-.03.02-.18.11-.24.35-.12.53.37.58.7.69,1.09.77.14.03.26.05.4.13.15.08.39.45.33.75-.06.31-.47.42-.81.46-.84.1-1.6-.12-2.03-.59-.35-.38-.47-.92-.32-1.54,0-.04.02-.08.03-.12.32-1.18,1.29-2.02,1.74-2.35.13-.1.22-.15.23-.16.06-.03.1-.08.13-.13.07-.12.07-.27,0-.39-.11-.18-.35-.23-.54-.12-.08.05-1.9,1.17-2.34,3.11-.2.86-.02,1.65.51,2.22.51.55,1.32.86,2.23.86.16,0,.32,0,.48-.03,1.13-.13,1.41-.73,1.48-1.08.13-.63-.27-1.32-.72-1.56Z"/><path class="ad" d="M22.48,3.66c-.65-.72-1.53-1.18-2.02-1.42.06.71,0,1.86-.68,3.01-.87,1.46.26,2.95.28,2.96.09.12.1.28.04.4l4.05,2.09c.55-2.84-.18-5.4-1.66-7.04Z"/><path class="y" d="M20.37,6c.67-1.01.69-2.35.7-3.15-.1-.06-.19-.16-.28-.22,0,.76.04,2.12-.55,3.12-.35.59-.34,1.2-.22,1.69-.05-.44.02-.94.34-1.43Z"/><path class="o" d="M22.42,4.17c-.49-.54-1.2-1.31-1.63-1.55,0,.01,0,.02,0,.03.33.3.85,1.05,1.17,1.47,1.24,1.67,1.63,3.67,1.15,5.98l.72.35c.45-2.64-.02-4.75-1.41-6.28Z"/><path class="u" d="M23.14,3.49c-1.28-1.39-3.22-2.44-3.28-2.46-.14-.04-.28,0-.38.09-.1.1-.14.24-.1.37,0,.02.91,2.23,0,3.76-1.13,1.9.27,3.73.33,3.81.13.17.38.2.55.07.05-.04.09-.08.11-.13.06-.13.05-.28-.04-.4-.01-.01-1.15-1.5-.28-2.96.68-1.14.55-2.68.41-3.4.51.27,1.48,1.07,2.13,1.79,1.49,1.64,1.96,3.91,1.41,6.75,0,.03-.01.07-.02.1-.04.21.1.41.31.45.03,0,.05,0,.08,0,.18,0,.35-.13.38-.31.8-3.93-.43-6.27-1.6-7.54Z"/><path class="ae" d="M27.71,18.59c-.18-1.13-.56-1.46-1.04-1.87-.27-.23-.57-.5-.85-.91-.04-.06-.07-.14-.06-.22.02-1.28-.36-2.45-1.14-3.48-.39.17-1.01.58-1.43,1.58-1.39,3.33.86,4.75-1.78,4.96-2.52.21-1.85-6.63-5.91-6.16-2.43.28-3.02,3-3.13,3.66,0,.04,0,.09,0,.13-.02.1-.09.19-.18.25-.3.18-.85.3-1.24.37.14.59.46,1.73.93,2.62.94,1.73,3.14,3.76,8.34,3.56,3.01-.12,5.54-1.02,6.77-2.42.56-.64.8-1.33.72-2.05Z"/><path class="t" d="M12.35,19.6c-.4-.73-.68-1.66-.84-2.28.47-.1.82-.22,1.05-.35.16-.09.27-.25.3-.43.01-.06.02-.12.01-.17.06-.33.2-1.13.65-1.84.65-1.04,1.56-1.84,3.46-1.83-.35-.24-1.54-.51-2.56-.09-.87.36-1.23.65-1.76,1.57-.43.73-.6,1.51-.65,1.84,0,.06,0,.12-.01.17-.04.18-.15.33-.3.43-.22.13-.57.25-1.05.35.16.62.44,1.54.84,2.28.56,1.04,1.51,2.34,3.49,3.01-1.44-.68-2.15-1.79-2.63-2.66Z"/><path class="ad" d="M21.5,9.61c-2.34-1.23-5.17-.02-5.93.57-.12.09-.29.11-.42.04-.14-.07-.22-.21-.21-.36,0-.14.02-.28.04-.44.1-.92.24-2.18-.79-3.5,0,0,0,0,0-.01-.28-.4-.97-1.05-1.71-1.63-.64-.49-1.1-.77-1.36-.88-.04.28-.05.69-.07,1.16-.02.54-.05,1.21-.11,2.03,0,.02,0,.03,0,.05-.72,3.5.8,4.5,1.91,5.22.12.08.23.15.34.22.09.07.15.17.16.28,0,.11-.03.22-.12.3-1.41,1.36-1.06,3.11-.9,3.32.04.05.06.11.07.17.11-.66.69-3.37,3.13-3.66,4.06-.47,3.39,6.37,5.91,6.16,2.64-.22.39-1.63,1.78-4.96.42-1,1.04-1.41,1.43-1.58-.71-.94-1.75-1.78-3.12-2.5Z"/><path class="o" d="M11.39,4.14c.78.62,1.5,1.33,1.8,1.76,0,0,0,.01.02.02,1.05,1.39,1.14,2.52,1.03,3.5-.02.18-.02.31-.03.46-.02.26.05.46.28.58.09.05.3.12.4.12.15,0,.35-.02.5-.11-.02,0-.03,0-.05,0-.1,0-.2-.02-.29-.07-.21-.11-.34-.33-.33-.57,0-.14.02-.29.04-.45.1-.88.23-2.09-.74-3.35,0,0,0-.01-.01-.02-.27-.38-.94-1.02-1.66-1.58-.47-.36-.81-.58-1.03-.71,0,.1-.01.21-.02.33.03.03.07.05.1.08Z"/><path class="o" d="M18.83,9.53c.86,0,1.64.19,2.33.56,1.16.63,2.11,1.35,2.82,2.14.1-.08.2-.15.3-.2-.68-.83-1.65-1.59-2.88-2.24-.64-.34-1.36-.51-2.16-.51-1.37,0-2.62.51-3.25.87.73-.32,1.75-.63,2.84-.63Z"/><path class="o" d="M22.49,15.52c-.25,1.1-.18,1.97-.12,2.65.02-.02.04-.04.06-.06.17-.19.14-.55.09-1.04-.04-.43-.08-.94-.03-1.55Z"/><path class="y" d="M13.5,12.15c.02.06.04.12.05.18.01.18-.05.35-.18.47-.69.67-.91,1.42-.97,1.93-.02.17-.02.33-.02.47,0,0,0,0,0,0,.03-.41.14-1.01.53-1.47.93-1.1,1.05-1.19.59-1.58Z"/><path class="y" d="M17.53,12.76c.97.7,1.48,2.02,1.94,3.23.46,1.18.86,2.22,1.57,2.42-.45-.42-.77-1.24-1.13-2.15-.53-1.38-1.12-2.9-2.39-3.49Z"/><path class="y" d="M11.58,6.92s0-.05.01-.07c.06-.82.09-1.49.11-2.03.01-.31,0-.36.02-.6.15.08,1.11.74,1.85,1.31-.33-.34-.78-.73-1.25-1.1-.47-.36-.81-.58-1.03-.71-.02.23-.03.52-.04.83-.02.54-.05,1.21-.11,2.03,0,.02,0,.05-.01.07-.64,3.15.53,4.15,1.6,4.86-.88-.78-1.7-1.92-1.16-4.6Z"/><path class="u" d="M28.49,18.5s0,0,0-.01c-.22-1.41-.76-1.88-1.29-2.34-.23-.2-.45-.39-.66-.67,0-2.71-1.57-4.91-4.67-6.54-2.18-1.15-4.69-.49-6.08.21.09-.94.09-2.31-.97-3.69-.35-.49-1.12-1.22-1.97-1.86-1.56-1.19-1.99-1.06-2.16-1.01-.11.03-.2.12-.25.22-.14.33-.16.85-.19,1.71-.02.53-.05,1.18-.11,1.97-.35,1.74-.23,3.1.36,4.17.5.9,1.23,1.39,1.83,1.79-1.03,1.23-1.09,2.73-.86,3.54-.31.09-.75.17-1.05.21-.11.01-.2.07-.27.16-.06.09-.09.19-.07.3.01.08.37,1.88,1.1,3.21.69,1.28,1.76,2.27,3.17,2.95,1.42.68,3.15,1.02,5.17,1.02.23,0,.47,0,.71-.01,3.22-.12,5.96-1.13,7.33-2.69.7-.8,1.01-1.71.9-2.64ZM20.22,23.07c-5.19.2-7.4-1.83-8.34-3.56-.48-.88-.79-2.03-.93-2.62.39-.07.94-.19,1.24-.37.09-.06.16-.15.18-.25,0-.04,0-.09,0-.13,0-.06-.03-.12-.07-.17-.16-.21-.51-1.96.9-3.32.08-.08.12-.19.12-.3,0-.11-.07-.22-.16-.28-.11-.07-.22-.15-.34-.22-1.11-.73-2.62-1.72-1.91-5.22,0-.02,0-.03,0-.05.06-.82.09-1.49.11-2.03.02-.48.04-.89.07-1.16.26.12.73.39,1.36.88.74.57,1.43,1.23,1.71,1.63,0,0,0,0,0,.01,1.02,1.32.89,2.58.79,3.5-.02.16-.03.31-.04.44,0,.15.07.29.21.36.14.07.3.06.42-.04.77-.58,3.59-1.8,5.93-.57,1.37.72,2.41,1.56,3.12,2.5.78,1.03,1.16,2.2,1.14,3.48,0,.08.02.15.06.22.28.42.59.68.85.91.48.42.86.74,1.04,1.87.08.72-.16,1.41-.72,2.05-1.23,1.4-3.76,2.31-6.77,2.42Z"/><g id="c"><path class="ab" d="M21.72,17.18c-.45-.02-1.16.21-1.12.84.03.53.49.77,1,.77.52,0,1.09-.2,1.14-.71s-.46-.87-1.02-.9Z"/></g><g id="d"><path class="ae" d="M22.41,18.09c-.06,0-.11-.03-.14-.08-.3-.49-.91-.23-.94-.22-.08.04-.18,0-.22-.08-.04-.08,0-.18.08-.22.31-.14,1-.24,1.36.35.05.08.02.18-.06.22-.03.02-.06.02-.09.02Z"/></g><g id="e"><path class="z" d="M15.28,18.43c.52,0,.95.23.95.52s-.43.52-.95.52-.95-.23-.95-.52.43-.52.95-.52Z"/></g><g id="f"><path class="z" d="M26.35,18.28c.38,0,.7.23.7.52s-.31.52-.7.52-.7-.23-.7-.52.31-.52.7-.52Z"/></g><g id="g"><path class="u" d="M20.45,20.41c-.53,0-.9-.42-1.02-.64-.1-.19-.03-.42.16-.52.19-.1.43-.03.53.15h0c.03.05.19.25.35.25.16,0,.44-.25.75-.91l.43-.94.3.99c.19.62.43.79.53.79.08,0,.17-.09.22-.22.07-.2.3-.3.5-.23.2.07.31.29.23.49-.17.45-.55.74-.98.72-.23,0-.6-.11-.92-.59-.31.43-.65.65-1.03.66-.01,0-.03,0-.04,0Z"/></g><g id="h"><path class="ab" d="M16.23,13.75c1.23,0,2.22.97,2.22,2.17s-.99,2.17-2.22,2.17-2.22-.97-2.22-2.17.99-2.17,2.22-2.17Z"/></g><g id="i"><path class="ab" d="M24.28,13.75c.75,0,1.36.82,1.36,1.83s-.61,1.83-1.36,1.83-1.36-.82-1.36-1.83.61-1.83,1.36-1.83Z"/></g><g id="j"><path class="n" d="M15.68,14.57c.39,0,.71.31.71.69s-.32.69-.71.69-.71-.31-.71-.69.32-.69.71-.69Z"/></g><g id="k"><path class="n" d="M24.51,14.22c.39,0,.71.31.71.69s-.32.69-.71.69-.71-.31-.71-.69.32-.69.71-.69Z"/></g><g id="l"><path class="n" d="M23.54,15.65c.19,0,.35.15.35.34s-.16.34-.35.34-.35-.15-.35-.34.16-.34.35-.34Z"/></g><g id="m"><path class="n" d="M15.03,16.23c.22,0,.4.18.4.39s-.18.39-.4.39-.4-.18-.4-.39.18-.39.4-.39Z"/></g></g></g></svg>